# xmcd
#
# Track frame offsets: 
#        150
#        16187
#        28921
#        49390
#        63190
#        75444
#        102225
#        124953
#        143724
#        153383
#        164777
#        181473
#        197426
#        215388
#
# Disc length: 3144 seconds
#
# Revision: 0
# Processed by: cddbd v1.5.2PL0 Copyright (c) Steve Scherf et al.
# Submitted via: ExactAudioCopy v0.99pb5
#
DISCID=bf0c460e
DTITLE=The Gravy Boys - Dust Bowl Love
DYEAR=2009
DGENRE=Bluegrass
TTITLE0=No Man's Land
TTITLE1=Hillbilly Pop
TTITLE2=Hello Eleanor
TTITLE3=Shackles And Chains
TTITLE4=Carolina Blues
TTITLE5=Take Me By The Hand
TTITLE6=This Long Life
TTITLE7=Barfly's Prayer
TTITLE8=Fruit Jar
TTITLE9=Pearly Gates
TTITLE10=Set My Pour Heart Free
TTITLE11=Happy
TTITLE12=Model T Ford
TTITLE13=Dust Bowl Lover
EXTD=
EXTT0=
EXTT1=
EXTT2=
EXTT3=
EXTT4=
EXTT5=
EXTT6=
EXTT7=
EXTT8=
EXTT9=
EXTT10=
EXTT11=
EXTT12=
EXTT13=
PLAYORDER=
